G75*
%MOIN*%
%OFA0B0*%
%FSLAX25Y25*%
%IPPOS*%
%LPD*%
%AMOC8*
5,1,8,0,0,1.08239X$1,22.5*
%
%ADD10C,0.00600*%
%ADD11C,0.00000*%
D10*
X0018800Y0042550D02*
X0138800Y0077550D01*
X0138800Y0023800D01*
X0123800Y0023800D01*
X0123800Y0001300D01*
X0221300Y0001300D01*
X0221300Y0023800D01*
X0206300Y0023800D01*
X0206300Y0075050D01*
X0313800Y0045050D01*
X0246300Y0155050D01*
X0348800Y0252550D01*
X0223800Y0240050D01*
X0171300Y0370050D01*
X0126300Y0240050D01*
X0001300Y0252550D01*
X0098800Y0157550D01*
X0018800Y0042550D01*
D11*
X0133300Y0012550D02*
X0133302Y0012659D01*
X0133308Y0012768D01*
X0133318Y0012876D01*
X0133332Y0012984D01*
X0133349Y0013092D01*
X0133371Y0013199D01*
X0133396Y0013305D01*
X0133426Y0013409D01*
X0133459Y0013513D01*
X0133496Y0013616D01*
X0133536Y0013717D01*
X0133580Y0013816D01*
X0133628Y0013914D01*
X0133680Y0014011D01*
X0133734Y0014105D01*
X0133792Y0014197D01*
X0133854Y0014287D01*
X0133919Y0014374D01*
X0133986Y0014460D01*
X0134057Y0014543D01*
X0134131Y0014623D01*
X0134208Y0014700D01*
X0134287Y0014775D01*
X0134369Y0014846D01*
X0134454Y0014915D01*
X0134541Y0014980D01*
X0134630Y0015043D01*
X0134722Y0015101D01*
X0134816Y0015157D01*
X0134911Y0015209D01*
X0135009Y0015258D01*
X0135108Y0015303D01*
X0135209Y0015345D01*
X0135311Y0015382D01*
X0135414Y0015416D01*
X0135519Y0015447D01*
X0135625Y0015473D01*
X0135731Y0015496D01*
X0135839Y0015514D01*
X0135947Y0015529D01*
X0136055Y0015540D01*
X0136164Y0015547D01*
X0136273Y0015550D01*
X0136382Y0015549D01*
X0136491Y0015544D01*
X0136599Y0015535D01*
X0136707Y0015522D01*
X0136815Y0015505D01*
X0136922Y0015485D01*
X0137028Y0015460D01*
X0137133Y0015432D01*
X0137237Y0015400D01*
X0137340Y0015364D01*
X0137442Y0015324D01*
X0137542Y0015281D01*
X0137640Y0015234D01*
X0137737Y0015184D01*
X0137831Y0015130D01*
X0137924Y0015072D01*
X0138015Y0015012D01*
X0138103Y0014948D01*
X0138189Y0014881D01*
X0138272Y0014811D01*
X0138353Y0014738D01*
X0138431Y0014662D01*
X0138506Y0014583D01*
X0138579Y0014501D01*
X0138648Y0014417D01*
X0138714Y0014331D01*
X0138777Y0014242D01*
X0138837Y0014151D01*
X0138894Y0014058D01*
X0138947Y0013963D01*
X0138996Y0013866D01*
X0139042Y0013767D01*
X0139084Y0013667D01*
X0139123Y0013565D01*
X0139158Y0013461D01*
X0139189Y0013357D01*
X0139217Y0013252D01*
X0139240Y0013145D01*
X0139260Y0013038D01*
X0139276Y0012930D01*
X0139288Y0012822D01*
X0139296Y0012713D01*
X0139300Y0012604D01*
X0139300Y0012496D01*
X0139296Y0012387D01*
X0139288Y0012278D01*
X0139276Y0012170D01*
X0139260Y0012062D01*
X0139240Y0011955D01*
X0139217Y0011848D01*
X0139189Y0011743D01*
X0139158Y0011639D01*
X0139123Y0011535D01*
X0139084Y0011433D01*
X0139042Y0011333D01*
X0138996Y0011234D01*
X0138947Y0011137D01*
X0138894Y0011042D01*
X0138837Y0010949D01*
X0138777Y0010858D01*
X0138714Y0010769D01*
X0138648Y0010683D01*
X0138579Y0010599D01*
X0138506Y0010517D01*
X0138431Y0010438D01*
X0138353Y0010362D01*
X0138272Y0010289D01*
X0138189Y0010219D01*
X0138103Y0010152D01*
X0138015Y0010088D01*
X0137924Y0010028D01*
X0137831Y0009970D01*
X0137737Y0009916D01*
X0137640Y0009866D01*
X0137542Y0009819D01*
X0137442Y0009776D01*
X0137340Y0009736D01*
X0137237Y0009700D01*
X0137133Y0009668D01*
X0137028Y0009640D01*
X0136922Y0009615D01*
X0136815Y0009595D01*
X0136707Y0009578D01*
X0136599Y0009565D01*
X0136491Y0009556D01*
X0136382Y0009551D01*
X0136273Y0009550D01*
X0136164Y0009553D01*
X0136055Y0009560D01*
X0135947Y0009571D01*
X0135839Y0009586D01*
X0135731Y0009604D01*
X0135625Y0009627D01*
X0135519Y0009653D01*
X0135414Y0009684D01*
X0135311Y0009718D01*
X0135209Y0009755D01*
X0135108Y0009797D01*
X0135009Y0009842D01*
X0134911Y0009891D01*
X0134816Y0009943D01*
X0134722Y0009999D01*
X0134630Y0010057D01*
X0134541Y0010120D01*
X0134454Y0010185D01*
X0134369Y0010254D01*
X0134287Y0010325D01*
X0134208Y0010400D01*
X0134131Y0010477D01*
X0134057Y0010557D01*
X0133986Y0010640D01*
X0133919Y0010726D01*
X0133854Y0010813D01*
X0133792Y0010903D01*
X0133734Y0010995D01*
X0133680Y0011089D01*
X0133628Y0011186D01*
X0133580Y0011284D01*
X0133536Y0011383D01*
X0133496Y0011484D01*
X0133459Y0011587D01*
X0133426Y0011691D01*
X0133396Y0011795D01*
X0133371Y0011901D01*
X0133349Y0012008D01*
X0133332Y0012116D01*
X0133318Y0012224D01*
X0133308Y0012332D01*
X0133302Y0012441D01*
X0133300Y0012550D01*
X0205800Y0012550D02*
X0205802Y0012659D01*
X0205808Y0012768D01*
X0205818Y0012876D01*
X0205832Y0012984D01*
X0205849Y0013092D01*
X0205871Y0013199D01*
X0205896Y0013305D01*
X0205926Y0013409D01*
X0205959Y0013513D01*
X0205996Y0013616D01*
X0206036Y0013717D01*
X0206080Y0013816D01*
X0206128Y0013914D01*
X0206180Y0014011D01*
X0206234Y0014105D01*
X0206292Y0014197D01*
X0206354Y0014287D01*
X0206419Y0014374D01*
X0206486Y0014460D01*
X0206557Y0014543D01*
X0206631Y0014623D01*
X0206708Y0014700D01*
X0206787Y0014775D01*
X0206869Y0014846D01*
X0206954Y0014915D01*
X0207041Y0014980D01*
X0207130Y0015043D01*
X0207222Y0015101D01*
X0207316Y0015157D01*
X0207411Y0015209D01*
X0207509Y0015258D01*
X0207608Y0015303D01*
X0207709Y0015345D01*
X0207811Y0015382D01*
X0207914Y0015416D01*
X0208019Y0015447D01*
X0208125Y0015473D01*
X0208231Y0015496D01*
X0208339Y0015514D01*
X0208447Y0015529D01*
X0208555Y0015540D01*
X0208664Y0015547D01*
X0208773Y0015550D01*
X0208882Y0015549D01*
X0208991Y0015544D01*
X0209099Y0015535D01*
X0209207Y0015522D01*
X0209315Y0015505D01*
X0209422Y0015485D01*
X0209528Y0015460D01*
X0209633Y0015432D01*
X0209737Y0015400D01*
X0209840Y0015364D01*
X0209942Y0015324D01*
X0210042Y0015281D01*
X0210140Y0015234D01*
X0210237Y0015184D01*
X0210331Y0015130D01*
X0210424Y0015072D01*
X0210515Y0015012D01*
X0210603Y0014948D01*
X0210689Y0014881D01*
X0210772Y0014811D01*
X0210853Y0014738D01*
X0210931Y0014662D01*
X0211006Y0014583D01*
X0211079Y0014501D01*
X0211148Y0014417D01*
X0211214Y0014331D01*
X0211277Y0014242D01*
X0211337Y0014151D01*
X0211394Y0014058D01*
X0211447Y0013963D01*
X0211496Y0013866D01*
X0211542Y0013767D01*
X0211584Y0013667D01*
X0211623Y0013565D01*
X0211658Y0013461D01*
X0211689Y0013357D01*
X0211717Y0013252D01*
X0211740Y0013145D01*
X0211760Y0013038D01*
X0211776Y0012930D01*
X0211788Y0012822D01*
X0211796Y0012713D01*
X0211800Y0012604D01*
X0211800Y0012496D01*
X0211796Y0012387D01*
X0211788Y0012278D01*
X0211776Y0012170D01*
X0211760Y0012062D01*
X0211740Y0011955D01*
X0211717Y0011848D01*
X0211689Y0011743D01*
X0211658Y0011639D01*
X0211623Y0011535D01*
X0211584Y0011433D01*
X0211542Y0011333D01*
X0211496Y0011234D01*
X0211447Y0011137D01*
X0211394Y0011042D01*
X0211337Y0010949D01*
X0211277Y0010858D01*
X0211214Y0010769D01*
X0211148Y0010683D01*
X0211079Y0010599D01*
X0211006Y0010517D01*
X0210931Y0010438D01*
X0210853Y0010362D01*
X0210772Y0010289D01*
X0210689Y0010219D01*
X0210603Y0010152D01*
X0210515Y0010088D01*
X0210424Y0010028D01*
X0210331Y0009970D01*
X0210237Y0009916D01*
X0210140Y0009866D01*
X0210042Y0009819D01*
X0209942Y0009776D01*
X0209840Y0009736D01*
X0209737Y0009700D01*
X0209633Y0009668D01*
X0209528Y0009640D01*
X0209422Y0009615D01*
X0209315Y0009595D01*
X0209207Y0009578D01*
X0209099Y0009565D01*
X0208991Y0009556D01*
X0208882Y0009551D01*
X0208773Y0009550D01*
X0208664Y0009553D01*
X0208555Y0009560D01*
X0208447Y0009571D01*
X0208339Y0009586D01*
X0208231Y0009604D01*
X0208125Y0009627D01*
X0208019Y0009653D01*
X0207914Y0009684D01*
X0207811Y0009718D01*
X0207709Y0009755D01*
X0207608Y0009797D01*
X0207509Y0009842D01*
X0207411Y0009891D01*
X0207316Y0009943D01*
X0207222Y0009999D01*
X0207130Y0010057D01*
X0207041Y0010120D01*
X0206954Y0010185D01*
X0206869Y0010254D01*
X0206787Y0010325D01*
X0206708Y0010400D01*
X0206631Y0010477D01*
X0206557Y0010557D01*
X0206486Y0010640D01*
X0206419Y0010726D01*
X0206354Y0010813D01*
X0206292Y0010903D01*
X0206234Y0010995D01*
X0206180Y0011089D01*
X0206128Y0011186D01*
X0206080Y0011284D01*
X0206036Y0011383D01*
X0205996Y0011484D01*
X0205959Y0011587D01*
X0205926Y0011691D01*
X0205896Y0011795D01*
X0205871Y0011901D01*
X0205849Y0012008D01*
X0205832Y0012116D01*
X0205818Y0012224D01*
X0205808Y0012332D01*
X0205802Y0012441D01*
X0205800Y0012550D01*
M02*
