%
M48
M72
T01C0.01200
T02C0.03200
T03C0.04000
T04C0.06000
%
T01
X81300Y83889
X103889Y128800
X120050Y138800
X143800Y120050
X161300Y113900
X173800Y111300
X183800Y127550
X206300Y108175
X220050Y115000
X221300Y109500
X233282Y117032
X242100Y130750
X235700Y145050
X222900Y153850
X235375Y163000
X220050Y175050
X201300Y171300
X192500Y154750
X207700Y127861
X200050Y75050
X197600Y63750
X156300Y185050
X185050Y225050
X197550Y235050
X185900Y260050
X171300Y270050
X163800Y277550
X152500Y275050
X152550Y253800
X143719Y235131
X171300Y235050
X224700Y197455
X230900Y209850
X234200Y217150
X236300Y225050
X261300Y222550
X247550Y195050
T02
X43800Y65050
X53800Y65050
X66300Y97550
X76300Y97550
X91300Y92550
X96300Y105050
X101300Y110050
X106300Y105050
X111300Y92550
X101300Y77550
X91300Y77550
X128800Y92550
X138800Y92550
X131300Y108800
X126300Y113800
X136300Y113800
X128800Y125050
X118800Y125050
X108800Y125050
X96300Y125050
X86300Y125050
X108800Y145050
X118800Y145050
X128800Y145050
X128800Y152550
X138800Y155050
X138800Y145050
X138800Y165050
X138800Y175050
X138800Y185050
X138800Y195050
X138800Y205050
X138800Y215050
X148800Y225050
X158800Y225050
X168800Y215050
X168800Y205050
X168800Y195050
X168800Y185050
X168800Y175050
X168800Y165050
X168800Y155050
X168800Y145050
X181300Y145050
X181300Y155050
X181300Y165050
X181300Y175050
X181300Y185050
X181300Y195050
X181300Y205050
X181300Y215050
X191300Y225050
X201300Y225050
X211300Y230050
X221300Y230050
X226300Y215050
X211300Y215050
X211300Y205050
X211300Y195050
X211300Y185050
X211300Y175050
X211300Y165050
X211300Y155050
X211300Y145050
X208800Y135050
X223800Y130050
X228800Y125050
X228800Y135050
X246300Y125050
X256300Y125050
X251300Y110050
X236300Y102550
X231300Y107550
X226300Y102550
X211300Y92550
X201300Y92550
X188800Y90050
X188800Y80050
X188800Y70050
X188800Y60050
X188800Y50050
X188800Y40050
X188800Y30050
X198800Y30050
X198800Y50050
X221300Y83800
X241300Y83800
X251300Y90050
X263800Y97550
X273800Y97550
X271300Y82550
X266300Y77550
X276300Y77550
X283800Y62550
X293800Y62550
X256300Y72550
X246300Y72550
X203800Y112550
X208800Y117550
X198800Y117550
X188800Y135050
X178800Y105050
X168800Y105050
X158800Y90050
X158800Y80050
X158800Y70050
X158800Y60050
X158800Y50050
X158800Y40050
X158800Y30050
X146300Y27550
X146300Y37550
X146300Y45050
X146300Y55050
X146300Y62550
X146300Y72550
X116300Y160050
X106300Y160050
X108800Y180050
X118800Y180050
X128800Y180050
X128800Y172550
X128800Y200050
X118800Y200050
X108800Y200050
X113800Y212550
X118800Y217550
X123800Y212550
X126300Y230050
X136300Y230050
X166300Y245050
X166300Y255050
X151300Y265050
X141300Y265050
X168800Y285050
X173800Y290050
X178800Y285050
X181300Y305050
X191300Y305050
X166300Y305050
X156300Y305050
X166300Y340050
X176300Y340050
X198800Y262550
X208800Y262550
X186300Y255050
X186300Y245050
X233800Y200050
X228800Y195050
X233800Y190050
X246300Y185050
X246300Y175050
X256300Y185050
X266300Y185050
X256300Y198800
X258800Y210050
X263800Y215050
X268800Y210050
X276300Y198800
X288800Y215050
X298800Y215050
X288800Y235050
X278800Y235050
X256300Y230050
X246300Y230050
X246300Y215050
X246300Y205050
X226300Y175050
X228800Y157550
X238800Y157550
X313800Y240050
X323800Y240050
X101300Y230050
X91300Y230050
X91300Y210050
X86300Y205050
X81300Y210050
X68800Y207550
X58800Y207550
X83800Y187550
X93800Y187550
X68800Y235050
X58800Y235050
X38800Y237550
X28800Y237550
T03
X156300Y130050
X156300Y120050
X166300Y120050
X166300Y130050
X176300Y130050
X176300Y120050
X178800Y12550
X168800Y12550
T04
X136300Y12550
X208800Y12550
M30
