G75*
%MOIN*%
%OFA0B0*%
%FSLAX25Y25*%
%IPPOS*%
%LPD*%
%AMOC8*
5,1,8,0,0,1.08239X$1,22.5*
%
%ADD10C,0.00600*%
%ADD11C,0.00000*%
%ADD12OC8,0.04800*%
%ADD13C,0.04800*%
%ADD14C,0.06000*%
%ADD15C,0.04800*%
%ADD16C,0.06000*%
%ADD17OC8,0.06000*%
%ADD18C,0.00800*%
%ADD19C,0.02400*%
D10*
X0018800Y0042550D02*
X0138800Y0077550D01*
X0138800Y0023800D01*
X0123800Y0023800D01*
X0123800Y0001300D01*
X0221300Y0001300D01*
X0221300Y0023800D01*
X0206300Y0023800D01*
X0206300Y0075050D01*
X0313800Y0045050D01*
X0246300Y0155050D01*
X0348800Y0252550D01*
X0223800Y0240050D01*
X0171300Y0370050D01*
X0126300Y0240050D01*
X0001300Y0252550D01*
X0098800Y0157550D01*
X0018800Y0042550D01*
X0043800Y0065050D02*
X0044150Y0065050D01*
X0062989Y0083889D01*
X0081300Y0083889D01*
X0206511Y0083889D01*
X0212550Y0077850D01*
X0235700Y0077850D01*
X0246150Y0067400D01*
X0278950Y0067400D01*
X0283800Y0062550D01*
X0283800Y0072550D02*
X0293800Y0062550D01*
X0283800Y0072550D02*
X0283800Y0082550D01*
X0273800Y0092550D01*
X0273800Y0097550D01*
X0256300Y0115050D01*
X0256300Y0125050D01*
X0246300Y0114450D02*
X0242600Y0118150D01*
X0242600Y0126583D01*
X0245050Y0129033D01*
X0245050Y0150050D01*
X0243682Y0151418D01*
X0243682Y0161182D01*
X0251700Y0169200D01*
X0251700Y0207150D01*
X0246300Y0212550D01*
X0246300Y0215050D01*
X0251300Y0211300D02*
X0260050Y0202550D01*
X0260050Y0188800D01*
X0256300Y0185050D01*
X0250100Y0183450D02*
X0250100Y0192500D01*
X0247550Y0195050D01*
X0235050Y0207550D01*
X0235050Y0212550D01*
X0226500Y0221100D01*
X0220250Y0221100D01*
X0211300Y0230050D01*
X0202550Y0238800D01*
X0136650Y0238800D01*
X0127900Y0230050D01*
X0126300Y0230050D01*
X0118300Y0230050D01*
X0079700Y0191450D01*
X0079700Y0185850D01*
X0082100Y0183450D01*
X0082900Y0183450D01*
X0106100Y0160250D01*
X0106300Y0160050D01*
X0102100Y0161050D02*
X0102100Y0140850D01*
X0086300Y0125050D01*
X0086300Y0108800D01*
X0102550Y0092550D01*
X0111300Y0092550D01*
X0115050Y0088800D01*
X0142550Y0088800D01*
X0147550Y0093800D01*
X0200675Y0093800D01*
X0200675Y0093175D01*
X0201300Y0092550D01*
X0206900Y0092250D02*
X0198950Y0100200D01*
X0190400Y0108750D01*
X0172500Y0108750D01*
X0168800Y0105050D01*
X0174025Y0100275D02*
X0146525Y0100275D01*
X0138800Y0092550D01*
X0128800Y0092550D02*
X0118800Y0102550D01*
X0113800Y0107550D01*
X0113800Y0147725D01*
X0111300Y0150225D01*
X0111300Y0174650D01*
X0096700Y0174650D01*
X0083800Y0187550D01*
X0107875Y0211625D01*
X0107875Y0215050D01*
X0118675Y0225850D01*
X0138800Y0225850D01*
X0143719Y0230769D01*
X0143719Y0235131D01*
X0143700Y0250050D02*
X0128700Y0235050D01*
X0096300Y0235050D01*
X0091300Y0230050D01*
X0077300Y0216050D01*
X0077300Y0185850D01*
X0102100Y0161050D01*
X0111300Y0174650D02*
X0113400Y0174650D01*
X0118800Y0180050D01*
X0112550Y0183800D02*
X0131300Y0183800D01*
X0133800Y0181300D01*
X0152550Y0181300D01*
X0153800Y0180050D01*
X0193800Y0180050D01*
X0198800Y0175050D01*
X0211300Y0175050D01*
X0216300Y0178800D02*
X0205050Y0178800D01*
X0193800Y0190050D01*
X0158800Y0190050D01*
X0143800Y0205050D01*
X0138800Y0205050D01*
X0118800Y0200050D02*
X0113800Y0205050D01*
X0113800Y0212550D01*
X0112550Y0183800D02*
X0108800Y0180050D01*
X0128800Y0180050D02*
X0129984Y0178866D01*
X0142616Y0178866D01*
X0153175Y0168308D01*
X0153175Y0159425D01*
X0162550Y0150050D01*
X0197100Y0150050D01*
X0207100Y0140050D01*
X0213800Y0140050D01*
X0223800Y0130050D01*
X0232750Y0121300D02*
X0221300Y0109850D01*
X0221300Y0109500D01*
X0233282Y0117032D02*
X0235700Y0119450D01*
X0235700Y0145050D01*
X0232750Y0144000D02*
X0232750Y0121300D01*
X0238900Y0116300D02*
X0238900Y0114950D01*
X0240500Y0113350D01*
X0240500Y0111300D01*
X0240500Y0110050D01*
X0240500Y0101050D01*
X0227700Y0088250D01*
X0210100Y0088250D01*
X0206900Y0091450D01*
X0206900Y0092250D01*
X0211300Y0092550D02*
X0226400Y0092550D01*
X0236300Y0102450D01*
X0236300Y0102550D01*
X0246300Y0114450D02*
X0246300Y0081300D01*
X0244925Y0079925D01*
X0213800Y0079925D01*
X0207425Y0086300D01*
X0086300Y0086300D01*
X0083800Y0088800D01*
X0075050Y0088800D01*
X0066300Y0097550D01*
X0056300Y0067550D02*
X0053800Y0065050D01*
X0056300Y0067550D02*
X0091300Y0067550D01*
X0101300Y0077550D01*
X0095050Y0081300D02*
X0147550Y0081300D01*
X0153800Y0075050D01*
X0200050Y0075050D01*
X0197600Y0063750D02*
X0181300Y0063750D01*
X0177600Y0060050D01*
X0158800Y0060050D01*
X0158800Y0070050D02*
X0153800Y0070050D01*
X0151300Y0072550D01*
X0146300Y0072550D01*
X0146300Y0045050D02*
X0173800Y0045050D01*
X0188800Y0060050D01*
X0174025Y0100275D02*
X0178800Y0105050D01*
X0193334Y0114891D02*
X0193334Y0136766D01*
X0191300Y0138800D01*
X0120050Y0138800D01*
X0108800Y0133711D02*
X0108800Y0145050D01*
X0108800Y0133711D02*
X0103889Y0128800D01*
X0128800Y0152550D02*
X0129300Y0152250D01*
X0132700Y0148850D01*
X0147600Y0148850D01*
X0155100Y0141350D01*
X0192500Y0141350D01*
X0194934Y0138916D01*
X0194934Y0116184D01*
X0198567Y0112550D01*
X0203800Y0112550D01*
X0206300Y0108175D02*
X0200050Y0108175D01*
X0193334Y0114891D01*
X0176300Y0130050D02*
X0171300Y0125050D01*
X0163800Y0125050D01*
X0161300Y0122550D01*
X0161300Y0113900D01*
X0151300Y0135050D02*
X0188800Y0135050D01*
X0192500Y0154750D02*
X0187200Y0160050D01*
X0173800Y0160050D01*
X0168800Y0165050D01*
X0151300Y0135050D02*
X0131300Y0115050D01*
X0131300Y0108800D01*
X0095050Y0081300D02*
X0091300Y0077550D01*
X0205050Y0190050D02*
X0216300Y0190050D01*
X0226300Y0180050D01*
X0226300Y0175050D01*
X0220050Y0175050D02*
X0216300Y0178800D01*
X0205050Y0190050D02*
X0195050Y0200050D01*
X0173800Y0200050D01*
X0168800Y0205050D01*
X0185050Y0221300D02*
X0206300Y0200050D01*
X0222105Y0200050D01*
X0224700Y0197455D01*
X0230900Y0209850D02*
X0226300Y0214450D01*
X0226300Y0215050D01*
X0234200Y0217150D02*
X0246300Y0229250D01*
X0246300Y0230050D01*
X0247600Y0233750D02*
X0247550Y0233800D01*
X0222550Y0233800D01*
X0206300Y0250050D01*
X0198800Y0250050D01*
X0198800Y0262550D01*
X0203800Y0263800D02*
X0203800Y0256300D01*
X0221313Y0238787D01*
X0221320Y0238720D01*
X0221638Y0238459D01*
X0221792Y0238078D01*
X0222192Y0237908D01*
X0222703Y0237397D01*
X0276453Y0237397D01*
X0278800Y0235050D01*
X0283800Y0230050D02*
X0256300Y0230050D01*
X0251300Y0230283D02*
X0247833Y0233750D01*
X0247600Y0233750D01*
X0251300Y0230283D02*
X0251300Y0211300D01*
X0261300Y0222550D02*
X0296300Y0222550D01*
X0313800Y0240050D01*
X0288800Y0235050D02*
X0283800Y0230050D01*
X0298800Y0215050D02*
X0293800Y0210050D01*
X0268800Y0210050D01*
X0266300Y0207550D01*
X0266300Y0185050D01*
X0250100Y0183450D02*
X0247700Y0181050D01*
X0246900Y0181050D01*
X0240875Y0175025D01*
X0240875Y0174225D01*
X0228800Y0162150D01*
X0228800Y0157550D01*
X0228800Y0156750D01*
X0238900Y0146650D01*
X0238900Y0116300D01*
X0242100Y0130750D02*
X0242100Y0146600D01*
X0234900Y0153800D01*
X0234900Y0162525D01*
X0235375Y0163000D01*
X0237675Y0173675D02*
X0237675Y0176625D01*
X0246100Y0185050D01*
X0246300Y0185050D01*
X0237675Y0173675D02*
X0211300Y0147300D01*
X0211300Y0145050D01*
X0222900Y0153850D02*
X0232750Y0144000D01*
X0246300Y0081300D02*
X0246300Y0072550D01*
X0256300Y0072550D02*
X0283800Y0072550D01*
X0185050Y0221300D02*
X0185050Y0225050D01*
X0197550Y0235050D02*
X0171300Y0235050D01*
X0170050Y0241300D02*
X0191300Y0241300D01*
X0205283Y0241300D01*
X0215000Y0231583D01*
X0215000Y0230100D01*
X0218800Y0226300D01*
X0235050Y0226300D01*
X0236300Y0225050D01*
X0208800Y0262550D02*
X0186300Y0285050D01*
X0178900Y0285050D01*
X0178800Y0285050D01*
X0172550Y0278800D01*
X0158800Y0265050D01*
X0151300Y0265050D01*
X0158800Y0260050D02*
X0152550Y0253800D01*
X0141300Y0265050D01*
X0152500Y0275050D02*
X0152500Y0306650D01*
X0166300Y0320450D01*
X0166300Y0340050D01*
X0176300Y0340050D02*
X0176300Y0315050D01*
X0166300Y0305050D01*
X0178800Y0292550D01*
X0191300Y0305050D01*
X0178800Y0292550D02*
X0178800Y0285050D01*
X0177550Y0276300D02*
X0191300Y0276300D01*
X0203800Y0263800D01*
X0198800Y0250050D02*
X0143700Y0250050D01*
X0158800Y0260050D02*
X0185900Y0260050D01*
X0171300Y0270050D02*
X0177550Y0276300D01*
X0163800Y0277550D02*
X0156300Y0285050D01*
X0156300Y0305050D01*
X0166300Y0245050D02*
X0170050Y0241300D01*
X0068800Y0235050D02*
X0068800Y0207550D01*
D11*
X0133300Y0012550D02*
X0133302Y0012659D01*
X0133308Y0012768D01*
X0133318Y0012876D01*
X0133332Y0012984D01*
X0133349Y0013092D01*
X0133371Y0013199D01*
X0133396Y0013305D01*
X0133426Y0013409D01*
X0133459Y0013513D01*
X0133496Y0013616D01*
X0133536Y0013717D01*
X0133580Y0013816D01*
X0133628Y0013914D01*
X0133680Y0014011D01*
X0133734Y0014105D01*
X0133792Y0014197D01*
X0133854Y0014287D01*
X0133919Y0014374D01*
X0133986Y0014460D01*
X0134057Y0014543D01*
X0134131Y0014623D01*
X0134208Y0014700D01*
X0134287Y0014775D01*
X0134369Y0014846D01*
X0134454Y0014915D01*
X0134541Y0014980D01*
X0134630Y0015043D01*
X0134722Y0015101D01*
X0134816Y0015157D01*
X0134911Y0015209D01*
X0135009Y0015258D01*
X0135108Y0015303D01*
X0135209Y0015345D01*
X0135311Y0015382D01*
X0135414Y0015416D01*
X0135519Y0015447D01*
X0135625Y0015473D01*
X0135731Y0015496D01*
X0135839Y0015514D01*
X0135947Y0015529D01*
X0136055Y0015540D01*
X0136164Y0015547D01*
X0136273Y0015550D01*
X0136382Y0015549D01*
X0136491Y0015544D01*
X0136599Y0015535D01*
X0136707Y0015522D01*
X0136815Y0015505D01*
X0136922Y0015485D01*
X0137028Y0015460D01*
X0137133Y0015432D01*
X0137237Y0015400D01*
X0137340Y0015364D01*
X0137442Y0015324D01*
X0137542Y0015281D01*
X0137640Y0015234D01*
X0137737Y0015184D01*
X0137831Y0015130D01*
X0137924Y0015072D01*
X0138015Y0015012D01*
X0138103Y0014948D01*
X0138189Y0014881D01*
X0138272Y0014811D01*
X0138353Y0014738D01*
X0138431Y0014662D01*
X0138506Y0014583D01*
X0138579Y0014501D01*
X0138648Y0014417D01*
X0138714Y0014331D01*
X0138777Y0014242D01*
X0138837Y0014151D01*
X0138894Y0014058D01*
X0138947Y0013963D01*
X0138996Y0013866D01*
X0139042Y0013767D01*
X0139084Y0013667D01*
X0139123Y0013565D01*
X0139158Y0013461D01*
X0139189Y0013357D01*
X0139217Y0013252D01*
X0139240Y0013145D01*
X0139260Y0013038D01*
X0139276Y0012930D01*
X0139288Y0012822D01*
X0139296Y0012713D01*
X0139300Y0012604D01*
X0139300Y0012496D01*
X0139296Y0012387D01*
X0139288Y0012278D01*
X0139276Y0012170D01*
X0139260Y0012062D01*
X0139240Y0011955D01*
X0139217Y0011848D01*
X0139189Y0011743D01*
X0139158Y0011639D01*
X0139123Y0011535D01*
X0139084Y0011433D01*
X0139042Y0011333D01*
X0138996Y0011234D01*
X0138947Y0011137D01*
X0138894Y0011042D01*
X0138837Y0010949D01*
X0138777Y0010858D01*
X0138714Y0010769D01*
X0138648Y0010683D01*
X0138579Y0010599D01*
X0138506Y0010517D01*
X0138431Y0010438D01*
X0138353Y0010362D01*
X0138272Y0010289D01*
X0138189Y0010219D01*
X0138103Y0010152D01*
X0138015Y0010088D01*
X0137924Y0010028D01*
X0137831Y0009970D01*
X0137737Y0009916D01*
X0137640Y0009866D01*
X0137542Y0009819D01*
X0137442Y0009776D01*
X0137340Y0009736D01*
X0137237Y0009700D01*
X0137133Y0009668D01*
X0137028Y0009640D01*
X0136922Y0009615D01*
X0136815Y0009595D01*
X0136707Y0009578D01*
X0136599Y0009565D01*
X0136491Y0009556D01*
X0136382Y0009551D01*
X0136273Y0009550D01*
X0136164Y0009553D01*
X0136055Y0009560D01*
X0135947Y0009571D01*
X0135839Y0009586D01*
X0135731Y0009604D01*
X0135625Y0009627D01*
X0135519Y0009653D01*
X0135414Y0009684D01*
X0135311Y0009718D01*
X0135209Y0009755D01*
X0135108Y0009797D01*
X0135009Y0009842D01*
X0134911Y0009891D01*
X0134816Y0009943D01*
X0134722Y0009999D01*
X0134630Y0010057D01*
X0134541Y0010120D01*
X0134454Y0010185D01*
X0134369Y0010254D01*
X0134287Y0010325D01*
X0134208Y0010400D01*
X0134131Y0010477D01*
X0134057Y0010557D01*
X0133986Y0010640D01*
X0133919Y0010726D01*
X0133854Y0010813D01*
X0133792Y0010903D01*
X0133734Y0010995D01*
X0133680Y0011089D01*
X0133628Y0011186D01*
X0133580Y0011284D01*
X0133536Y0011383D01*
X0133496Y0011484D01*
X0133459Y0011587D01*
X0133426Y0011691D01*
X0133396Y0011795D01*
X0133371Y0011901D01*
X0133349Y0012008D01*
X0133332Y0012116D01*
X0133318Y0012224D01*
X0133308Y0012332D01*
X0133302Y0012441D01*
X0133300Y0012550D01*
X0205800Y0012550D02*
X0205802Y0012659D01*
X0205808Y0012768D01*
X0205818Y0012876D01*
X0205832Y0012984D01*
X0205849Y0013092D01*
X0205871Y0013199D01*
X0205896Y0013305D01*
X0205926Y0013409D01*
X0205959Y0013513D01*
X0205996Y0013616D01*
X0206036Y0013717D01*
X0206080Y0013816D01*
X0206128Y0013914D01*
X0206180Y0014011D01*
X0206234Y0014105D01*
X0206292Y0014197D01*
X0206354Y0014287D01*
X0206419Y0014374D01*
X0206486Y0014460D01*
X0206557Y0014543D01*
X0206631Y0014623D01*
X0206708Y0014700D01*
X0206787Y0014775D01*
X0206869Y0014846D01*
X0206954Y0014915D01*
X0207041Y0014980D01*
X0207130Y0015043D01*
X0207222Y0015101D01*
X0207316Y0015157D01*
X0207411Y0015209D01*
X0207509Y0015258D01*
X0207608Y0015303D01*
X0207709Y0015345D01*
X0207811Y0015382D01*
X0207914Y0015416D01*
X0208019Y0015447D01*
X0208125Y0015473D01*
X0208231Y0015496D01*
X0208339Y0015514D01*
X0208447Y0015529D01*
X0208555Y0015540D01*
X0208664Y0015547D01*
X0208773Y0015550D01*
X0208882Y0015549D01*
X0208991Y0015544D01*
X0209099Y0015535D01*
X0209207Y0015522D01*
X0209315Y0015505D01*
X0209422Y0015485D01*
X0209528Y0015460D01*
X0209633Y0015432D01*
X0209737Y0015400D01*
X0209840Y0015364D01*
X0209942Y0015324D01*
X0210042Y0015281D01*
X0210140Y0015234D01*
X0210237Y0015184D01*
X0210331Y0015130D01*
X0210424Y0015072D01*
X0210515Y0015012D01*
X0210603Y0014948D01*
X0210689Y0014881D01*
X0210772Y0014811D01*
X0210853Y0014738D01*
X0210931Y0014662D01*
X0211006Y0014583D01*
X0211079Y0014501D01*
X0211148Y0014417D01*
X0211214Y0014331D01*
X0211277Y0014242D01*
X0211337Y0014151D01*
X0211394Y0014058D01*
X0211447Y0013963D01*
X0211496Y0013866D01*
X0211542Y0013767D01*
X0211584Y0013667D01*
X0211623Y0013565D01*
X0211658Y0013461D01*
X0211689Y0013357D01*
X0211717Y0013252D01*
X0211740Y0013145D01*
X0211760Y0013038D01*
X0211776Y0012930D01*
X0211788Y0012822D01*
X0211796Y0012713D01*
X0211800Y0012604D01*
X0211800Y0012496D01*
X0211796Y0012387D01*
X0211788Y0012278D01*
X0211776Y0012170D01*
X0211760Y0012062D01*
X0211740Y0011955D01*
X0211717Y0011848D01*
X0211689Y0011743D01*
X0211658Y0011639D01*
X0211623Y0011535D01*
X0211584Y0011433D01*
X0211542Y0011333D01*
X0211496Y0011234D01*
X0211447Y0011137D01*
X0211394Y0011042D01*
X0211337Y0010949D01*
X0211277Y0010858D01*
X0211214Y0010769D01*
X0211148Y0010683D01*
X0211079Y0010599D01*
X0211006Y0010517D01*
X0210931Y0010438D01*
X0210853Y0010362D01*
X0210772Y0010289D01*
X0210689Y0010219D01*
X0210603Y0010152D01*
X0210515Y0010088D01*
X0210424Y0010028D01*
X0210331Y0009970D01*
X0210237Y0009916D01*
X0210140Y0009866D01*
X0210042Y0009819D01*
X0209942Y0009776D01*
X0209840Y0009736D01*
X0209737Y0009700D01*
X0209633Y0009668D01*
X0209528Y0009640D01*
X0209422Y0009615D01*
X0209315Y0009595D01*
X0209207Y0009578D01*
X0209099Y0009565D01*
X0208991Y0009556D01*
X0208882Y0009551D01*
X0208773Y0009550D01*
X0208664Y0009553D01*
X0208555Y0009560D01*
X0208447Y0009571D01*
X0208339Y0009586D01*
X0208231Y0009604D01*
X0208125Y0009627D01*
X0208019Y0009653D01*
X0207914Y0009684D01*
X0207811Y0009718D01*
X0207709Y0009755D01*
X0207608Y0009797D01*
X0207509Y0009842D01*
X0207411Y0009891D01*
X0207316Y0009943D01*
X0207222Y0009999D01*
X0207130Y0010057D01*
X0207041Y0010120D01*
X0206954Y0010185D01*
X0206869Y0010254D01*
X0206787Y0010325D01*
X0206708Y0010400D01*
X0206631Y0010477D01*
X0206557Y0010557D01*
X0206486Y0010640D01*
X0206419Y0010726D01*
X0206354Y0010813D01*
X0206292Y0010903D01*
X0206234Y0010995D01*
X0206180Y0011089D01*
X0206128Y0011186D01*
X0206080Y0011284D01*
X0206036Y0011383D01*
X0205996Y0011484D01*
X0205959Y0011587D01*
X0205926Y0011691D01*
X0205896Y0011795D01*
X0205871Y0011901D01*
X0205849Y0012008D01*
X0205832Y0012116D01*
X0205818Y0012224D01*
X0205808Y0012332D01*
X0205802Y0012441D01*
X0205800Y0012550D01*
D12*
X0246300Y0072550D03*
X0256300Y0072550D03*
X0263800Y0097550D03*
X0273800Y0097550D03*
X0256300Y0125050D03*
X0246300Y0125050D03*
X0238800Y0157550D03*
X0228800Y0157550D03*
X0256300Y0185050D03*
X0266300Y0185050D03*
X0288800Y0215050D03*
X0298800Y0215050D03*
X0288800Y0235050D03*
X0278800Y0235050D03*
X0256300Y0230050D03*
X0246300Y0230050D03*
X0221300Y0230050D03*
X0211300Y0230050D03*
X0201300Y0225050D03*
X0191300Y0225050D03*
X0158800Y0225050D03*
X0148800Y0225050D03*
X0136300Y0230050D03*
X0126300Y0230050D03*
X0101300Y0230050D03*
X0091300Y0230050D03*
X0068800Y0235050D03*
X0058800Y0235050D03*
X0038800Y0237550D03*
X0028800Y0237550D03*
X0058800Y0207550D03*
X0068800Y0207550D03*
X0083800Y0187550D03*
X0093800Y0187550D03*
X0106300Y0160050D03*
X0116300Y0160050D03*
X0096300Y0125050D03*
X0086300Y0125050D03*
X0076300Y0097550D03*
X0066300Y0097550D03*
X0091300Y0077550D03*
X0101300Y0077550D03*
X0128800Y0092550D03*
X0138800Y0092550D03*
X0146300Y0072550D03*
X0146300Y0062550D03*
X0146300Y0055050D03*
X0146300Y0045050D03*
X0146300Y0037550D03*
X0146300Y0027550D03*
X0201300Y0092550D03*
X0211300Y0092550D03*
X0178800Y0105050D03*
X0168800Y0105050D03*
X0053800Y0065050D03*
X0043800Y0065050D03*
X0198800Y0262550D03*
X0208800Y0262550D03*
X0191300Y0305050D03*
X0181300Y0305050D03*
X0166300Y0305050D03*
X0156300Y0305050D03*
X0166300Y0340050D03*
X0176300Y0340050D03*
X0151300Y0265050D03*
X0141300Y0265050D03*
X0313800Y0240050D03*
X0323800Y0240050D03*
X0293800Y0062550D03*
X0283800Y0062550D03*
D13*
X0213700Y0145050D02*
X0208900Y0145050D01*
X0208900Y0155050D02*
X0213700Y0155050D01*
X0213700Y0165050D02*
X0208900Y0165050D01*
X0208900Y0175050D02*
X0213700Y0175050D01*
X0213700Y0185050D02*
X0208900Y0185050D01*
X0208900Y0195050D02*
X0213700Y0195050D01*
X0213700Y0205050D02*
X0208900Y0205050D01*
X0208900Y0215050D02*
X0213700Y0215050D01*
X0183700Y0215050D02*
X0178900Y0215050D01*
X0178900Y0205050D02*
X0183700Y0205050D01*
X0183700Y0195050D02*
X0178900Y0195050D01*
X0171200Y0195050D02*
X0166400Y0195050D01*
X0166400Y0185050D02*
X0171200Y0185050D01*
X0171200Y0175050D02*
X0166400Y0175050D01*
X0166400Y0165050D02*
X0171200Y0165050D01*
X0178900Y0165050D02*
X0183700Y0165050D01*
X0183700Y0155050D02*
X0178900Y0155050D01*
X0178900Y0145050D02*
X0183700Y0145050D01*
X0171200Y0145050D02*
X0166400Y0145050D01*
X0166400Y0155050D02*
X0171200Y0155050D01*
X0178900Y0175050D02*
X0183700Y0175050D01*
X0183700Y0185050D02*
X0178900Y0185050D01*
X0171200Y0205050D02*
X0166400Y0205050D01*
X0166400Y0215050D02*
X0171200Y0215050D01*
X0141200Y0215050D02*
X0136400Y0215050D01*
X0136400Y0205050D02*
X0141200Y0205050D01*
X0141200Y0195050D02*
X0136400Y0195050D01*
X0136400Y0185050D02*
X0141200Y0185050D01*
X0141200Y0175050D02*
X0136400Y0175050D01*
X0136400Y0165050D02*
X0141200Y0165050D01*
X0141200Y0155050D02*
X0136400Y0155050D01*
X0136400Y0145050D02*
X0141200Y0145050D01*
X0156400Y0090050D02*
X0161200Y0090050D01*
X0161200Y0080050D02*
X0156400Y0080050D01*
X0156400Y0070050D02*
X0161200Y0070050D01*
X0161200Y0060050D02*
X0156400Y0060050D01*
X0156400Y0050050D02*
X0161200Y0050050D01*
X0161200Y0040050D02*
X0156400Y0040050D01*
X0156400Y0030050D02*
X0161200Y0030050D01*
X0186400Y0030050D02*
X0191200Y0030050D01*
X0191200Y0040050D02*
X0186400Y0040050D01*
X0186400Y0050050D02*
X0191200Y0050050D01*
X0191200Y0060050D02*
X0186400Y0060050D01*
X0186400Y0070050D02*
X0191200Y0070050D01*
X0191200Y0080050D02*
X0186400Y0080050D01*
X0186400Y0090050D02*
X0191200Y0090050D01*
D14*
X0178800Y0015550D02*
X0178800Y0009550D01*
X0168800Y0009550D02*
X0168800Y0015550D01*
D15*
X0198800Y0030050D03*
X0198800Y0050050D03*
X0221300Y0083800D03*
X0226300Y0102550D03*
X0231300Y0107550D03*
X0236300Y0102550D03*
X0251300Y0110050D03*
X0251300Y0090050D03*
X0241300Y0083800D03*
X0266300Y0077550D03*
X0271300Y0082550D03*
X0276300Y0077550D03*
X0228800Y0125050D03*
X0223800Y0130050D03*
X0228800Y0135050D03*
X0208800Y0135050D03*
X0208800Y0117550D03*
X0203800Y0112550D03*
X0198800Y0117550D03*
X0188800Y0135050D03*
X0226300Y0175050D03*
X0233800Y0190050D03*
X0228800Y0195050D03*
X0233800Y0200050D03*
X0246300Y0205050D03*
X0246300Y0215050D03*
X0258800Y0210050D03*
X0263800Y0215050D03*
X0268800Y0210050D03*
X0276300Y0198800D03*
X0256300Y0198800D03*
X0246300Y0185050D03*
X0246300Y0175050D03*
X0226300Y0215050D03*
X0186300Y0245050D03*
X0186300Y0255050D03*
X0166300Y0255050D03*
X0166300Y0245050D03*
X0168800Y0285050D03*
X0173800Y0290050D03*
X0178800Y0285050D03*
X0118800Y0217550D03*
X0113800Y0212550D03*
X0123800Y0212550D03*
X0118800Y0200050D03*
X0108800Y0200050D03*
X0108800Y0180050D03*
X0118800Y0180050D03*
X0128800Y0180050D03*
X0128800Y0172550D03*
X0128800Y0152550D03*
X0128800Y0145050D03*
X0118800Y0145050D03*
X0108800Y0145050D03*
X0108800Y0125050D03*
X0118800Y0125050D03*
X0128800Y0125050D03*
X0126300Y0113800D03*
X0131300Y0108800D03*
X0136300Y0113800D03*
X0111300Y0092550D03*
X0106300Y0105050D03*
X0101300Y0110050D03*
X0096300Y0105050D03*
X0091300Y0092550D03*
X0128800Y0200050D03*
X0091300Y0210050D03*
X0086300Y0205050D03*
X0081300Y0210050D03*
D16*
X0176300Y0130050D03*
D17*
X0176300Y0120050D03*
X0166300Y0120050D03*
X0166300Y0130050D03*
X0156300Y0130050D03*
X0156300Y0120050D03*
D18*
X0143800Y0120050D01*
X0136300Y0113800D02*
X0138800Y0111300D01*
X0173800Y0111300D01*
X0192550Y0111300D01*
X0183800Y0120050D01*
X0176300Y0120050D01*
X0183800Y0120050D02*
X0183800Y0127550D01*
X0198800Y0118961D02*
X0198800Y0117550D01*
X0198800Y0118961D02*
X0207700Y0127861D01*
X0220050Y0115511D01*
X0220050Y0115000D01*
X0226300Y0102550D02*
X0201300Y0102550D01*
X0192550Y0111300D01*
X0188200Y0171250D02*
X0201250Y0171250D01*
X0201300Y0171300D01*
X0188200Y0171250D02*
X0184400Y0175050D01*
X0181300Y0175050D01*
X0168800Y0185050D02*
X0156300Y0185050D01*
X0151300Y0190050D01*
X0126300Y0190050D01*
X0123800Y0192550D01*
X0123800Y0212550D01*
X0148800Y0225050D02*
X0158800Y0215050D01*
X0168800Y0215050D01*
X0171300Y0215050D01*
X0181300Y0205050D01*
X0201300Y0225050D02*
X0196300Y0230050D01*
X0163800Y0230050D01*
X0158800Y0225050D01*
X0201300Y0225050D02*
X0211300Y0215050D01*
X0215050Y0215050D01*
X0230050Y0200050D01*
X0233800Y0200050D01*
X0188800Y0030050D02*
X0183800Y0030050D01*
X0178800Y0025050D01*
X0148800Y0025050D01*
X0146300Y0027550D01*
D19*
X0197600Y0063750D03*
X0200050Y0075050D03*
X0206300Y0108175D03*
X0220050Y0115000D03*
X0221300Y0109500D03*
X0233282Y0117032D03*
X0242100Y0130750D03*
X0235700Y0145050D03*
X0222900Y0153850D03*
X0235375Y0163000D03*
X0220050Y0175050D03*
X0201300Y0171300D03*
X0192500Y0154750D03*
X0183800Y0127550D03*
X0173800Y0111300D03*
X0161300Y0113900D03*
X0143800Y0120050D03*
X0120050Y0138800D03*
X0103889Y0128800D03*
X0081300Y0083889D03*
X0156300Y0185050D03*
X0185050Y0225050D03*
X0197550Y0235050D03*
X0185900Y0260050D03*
X0171300Y0270050D03*
X0163800Y0277550D03*
X0152500Y0275050D03*
X0152550Y0253800D03*
X0143719Y0235131D03*
X0171300Y0235050D03*
X0224700Y0197455D03*
X0230900Y0209850D03*
X0234200Y0217150D03*
X0236300Y0225050D03*
X0261300Y0222550D03*
X0247550Y0195050D03*
X0207700Y0127861D03*
M02*
